HIERARCHY
ROOT Hips
{
  OFFSET 3.13124 94.3669 -3.18751
  CHANNELS  6 Xposition Yposition Zposition Zrotation Xrotation Yrotation
  JOINT LeftUpLeg
  {
    OFFSET 8.64259 1.95398 -2.38835
    CHANNELS 3 Zrotation Xrotation Yrotation
    JOINT LeftLeg
    {
      OFFSET 43.7702 0 0
      CHANNELS 3 Zrotation Xrotation Yrotation
      JOINT LeftFoot
      {
        OFFSET 40.6238 0 0
        CHANNELS 3 Zrotation Xrotation Yrotation
        JOINT LeftToeBase
        {
          OFFSET 12.7242 0 0
          CHANNELS 3 Zrotation Xrotation Yrotation
          End Site
          {
            OFFSET 0 0 0
          }
        }
      }
    }
  }
  JOINT RightUpLeg
  {
    OFFSET -8.2249 1.95398 -2.59336
    CHANNELS 3 Zrotation Xrotation Yrotation
    JOINT RightLeg
    {
      OFFSET 43.5653 0 0
      CHANNELS 3 Zrotation Xrotation Yrotation
      JOINT RightFoot
      {
        OFFSET 40.6238 0 0
        CHANNELS 3 Zrotation Xrotation Yrotation
        JOINT RightToeBase
        {
          OFFSET 12.7242 0 0
          CHANNELS 3 Zrotation Xrotation Yrotation
          End Site
          {
            OFFSET 0 0 0
          }
        }
      }
    }
  }
  JOINT Spine
  {
    OFFSET 0.165834 0.87714 6.61349
    CHANNELS 3 Zrotation Xrotation Yrotation
    JOINT Spine1
    {
      OFFSET 7.38962 1.71661e-005 0
      CHANNELS 3 Zrotation Xrotation Yrotation
      JOINT Spine2
      {
        OFFSET 11.9445 1.14441e-005 0
        CHANNELS 3 Zrotation Xrotation Yrotation
        JOINT Spine3
        {
          OFFSET 14.7254 4.19617e-005 0
          CHANNELS 3 Zrotation Xrotation Yrotation
          JOINT Spine4
          {
            OFFSET 10.9679 0 0
            CHANNELS 3 Zrotation Xrotation Yrotation
            JOINT RightShoulder
            {
              OFFSET 2.46616 -1.6653 3.69651
              CHANNELS 3 Zrotation Xrotation Yrotation
              JOINT RightArm
              {
                OFFSET 13.0012 0 0
                CHANNELS 3 Zrotation Xrotation Yrotation
                JOINT RightForeArm
                {
                  OFFSET 28.7848 1.52588e-005 0
                  CHANNELS 3 Zrotation Xrotation Yrotation
                  JOINT RightHand
                  {
                    OFFSET 26.5688 1.52588e-005 0
                    CHANNELS 3 Zrotation Xrotation Yrotation
                    End Site
                    {
                      OFFSET 0 0 0
                    }
                  }
                }
              }
            }
            JOINT LeftShoulder
            {
              OFFSET 2.38034 -1.29275 -3.75231
              CHANNELS 3 Zrotation Xrotation Yrotation
              JOINT LeftArm
              {
                OFFSET 16.3182 6.10352e-005 0
                CHANNELS 3 Zrotation Xrotation Yrotation
                JOINT LeftForeArm
                {
                  OFFSET 27.0901 0 0
                  CHANNELS 3 Zrotation Xrotation Yrotation
                  JOINT LeftHand
                  {
                    OFFSET 24.5451 1.52588e-005 0
                    CHANNELS 3 Zrotation Xrotation Yrotation
                    End Site
                    {
                      OFFSET 0 0 0
                    }
                  }
                }
              }
            }
            JOINT Neck
            {
              OFFSET 5.0226 -0.0266342 0
              CHANNELS 3 Zrotation Xrotation Yrotation
              JOINT Head
              {
                OFFSET 6.69363 2.86102e-005 0
                CHANNELS 3 Zrotation Xrotation Yrotation
                End Site
                {
                  OFFSET 0 0 0
                }
              }
            }
          }
        }
      }
    }
  }
}
MOTION
Frames:	9
Frame Time:	0.0333333
121.846 90.9801 -5.79027 83.6104 -19.6577 89.517 176.794 27.2838 85.4073 -7.6295 -50.728 -4.83938 36.8348 1.68684 0.659354 28.7808 4.67993e-006 2.73086e-006 -177.388 1.71738 104.47 -47.6962 49.5167 4.42685 50.6451 20.1395 15.0213 28.7808 1.70704e-005 2.18491e-005 0.978235 6.84177 -90.9748 13.1485 0.924595 0.389886 1.47781 0.940914 0.349175 -21.0588 0.764278 0.649485 -1.04615 0.764258 0.649477 100.509 -27.7077 -85.6072 46.7994 4.95988 6.50614 -14.8827 -24.1174 -29.2201 2.55915 -0.497147 -21.819 -74.989 -43.6954 101.716 -35.0984 -6.53072 21.4283 0.399608 -2.05163 -53.7771 6.05507 0.131737 -1.37477 55.7387 22.6221 15.8031 -34.6373 13.6812 -10.0608 
120.376 90.4092 -7.45161 84.1672 -25.7038 89.3723 177.161 28.0664 86.6424 -8.47781 -54.818 -5.72003 37.6177 3.07753 1.9684 28.7808 4.67993e-006 2.73086e-006 -176.696 2.7959 106.41 -45.0203 50.0475 4.71999 52.1264 24.5667 17.853 28.7808 1.70704e-005 2.18491e-005 1.14884 6.82552 -91.0875 13.1699 1.08145 0.478908 1.49929 1.10146 0.43081 -21.0378 0.887573 0.782045 -1.02512 0.887569 0.782017 101.298 -29.1461 -83.8742 45.7949 5.12327 4.62381 -12.5408 -20.2984 -27.7363 1.93023 -0.413862 -22.3738 -74.6966 -42.9885 102.235 -35.1756 -6.72268 22.4217 1.26012 -1.37301 -53.4927 9.47123 0.502123 1.32965 55.3729 22.691 12.605 -34.5999 15.1636 -7.53902 
118.68 89.6012 -9.40671 84.336 -32.2408 88.5524 177.494 29.2973 87.6599 -9.64165 -59.2039 -6.90664 38.8772 5.784 4.42558 28.7808 4.67993e-006 2.73086e-006 -175.909 3.14262 106.593 -39.6532 45.605 4.29394 55.094 24.6605 16.7383 28.7808 1.70704e-005 2.18491e-005 1.28832 6.80341 -91.1158 13.2005 1.21908 0.666523 1.53003 1.24715 0.612739 -21.0069 0.96185 0.998732 -0.99423 0.961827 0.998712 101.723 -30.5959 -82.9604 46.2322 4.0615 2.12428 -7.28401 -9.16707 -26.4156 2.29922 -0.494809 -23.164 -74.9771 -42.3997 101.805 -35.6651 -6.70882 23.1164 0.908906 -1.67776 -52.5902 14.133 1.15233 4.17665 54.9052 23.121 9.91925 -33.5799 16.7376 -5.29214 
116.679 88.1466 -11.7567 84.7619 -39.6699 88.0037 177.855 30.9035 89.3129 -11.5685 -64.4859 -8.85846 39.8059 8.17481 6.52125 28.7808 4.67993e-006 2.73086e-006 -176.318 4.06531 105.238 -36.7927 41.3788 4.00806 59.8503 16.899 10.4388 28.7808 1.70704e-005 2.18491e-005 1.81947 6.82122 -91.7389 13.114 1.51486 0.576416 1.44374 1.54144 0.509376 -21.0952 1.26722 1.00388 -1.08255 1.2672 1.00386 102.124 -29.3513 -82.1511 47.6007 1.97678 2.87313 -3.93515 -1.24954 -32.0659 5.01336 -0.833268 -21.3678 -76.5776 -44.4573 99.0969 -35.5689 -6.91342 23.2718 -1.07744 -3.36998 -52.0431 18.5767 2.20798 8.00419 50.3026 26.4857 14.3551 -28.6474 18.3277 -7.87509 
114.567 86.5898 -14.5828 85.977 -47.9102 87.7404 178.402 31.8516 91.2324 -13.6298 -68.4513 -10.9348 38.4972 12.6823 10.8834 28.7808 4.67993e-006 2.73086e-006 -178.612 6.41992 103.434 -45.2777 40.6854 3.58068 71.3565 11.1061 5.15761 28.7808 1.70704e-005 2.18491e-005 2.01824 7.00522 -91.8897 12.715 1.53761 0.941456 1.04467 1.57767 0.872852 -21.4925 1.18359 1.3601 -1.47986 1.18357 1.36008 101.414 -32.5775 -83.5397 47.818 0.616414 -2.19652 -1.15805 3.95136 -30.3225 3.65008 -0.774265 -24.9259 -76.9943 -43.2772 98.4354 -37.5111 -5.55001 22.3061 -3.51122 -5.43986 -51.9987 23.6209 3.76642 12.2396 49.5183 27.5215 10.9618 -26.2854 20.4795 -4.09611 
112.305 85.5539 -17.6992 87.6833 -56.2572 88.7016 179.433 32.221 94.5218 -17.1628 -72.9903 -14.4765 34.4868 12.8242 11.703 28.7808 4.67993e-006 2.73086e-006 -179.588 7.61521 101.816 -48.3864 36.3726 2.82284 79.3207 6.60687 2.2755 28.7808 1.70704e-005 2.18491e-005 2.0998 7.19672 -92.1273 12.3308 1.49006 0.538121 0.660606 1.51037 0.472104 -21.8789 1.25948 0.960326 -1.86625 1.25948 0.960308 100.448 -29.4891 -85.6223 50.5237 -3.04346 -2.81758 2.2329 8.39369 -35.7369 6.0876 -1.16192 -24.255 -78.4415 -45.6073 96.1026 -37.8454 -4.92927 21.3777 -6.22094 -7.46749 -53.2297 24.9441 5.14872 16.9638 39.4909 31.0458 17.5246 -16.7149 21.9382 -3.66452 
110.458 84.4645 -20.3702 87.0526 -64.6549 89.2366 -179.279 34.3139 99.9195 -93.6405 -85.228 -90.9915 30.31 21.1392 21.1704 28.7808 4.67993e-006 2.73086e-006 179.511 10.3492 101.498 -51.3655 30.073 2.15919 84.9483 1.88824 0.177122 28.7808 1.70704e-005 2.18491e-005 2.48337 7.21805 -92.9446 12.2332 1.19266 0.179709 0.562729 1.1994 0.12704 -21.9761 1.08351 0.529889 -1.96344 1.08351 0.529895 99.3719 -27.9026 -88.0107 51.5419 -5.32169 -5.15738 2.17973 7.91445 -36.9971 8.69818 -1.65928 -24.918 -78.5922 -46.3822 95.8744 -38.9581 -4.03293 20.6227 -6.25173 -7.47586 -53.3014 25.0624 4.06533 12.386 34.1547 33.405 19.5867 -12.0621 24.1779 -1.26992 
108.738 84.2052 -23.0178 85.1981 -72.7557 88.6108 -178.004 33.8374 104.23 -36.6866 -81.8152 -34.0251 30.9391 22.7613 22.679 28.7808 4.67993e-006 2.73086e-006 178.861 13.2555 101.367 -53.1123 22.1926 1.42096 86.2106 -1.40529 -0.919944 28.7808 1.70704e-005 2.18491e-005 2.5426 7.17682 -93.5508 12.3015 0.960146 -0.368409 0.630799 0.94294 -0.410288 -21.9071 1.02678 -0.0630576 -1.89448 1.02676 -0.0630733 98.1157 -24.6265 -91.1707 52.8684 -7.22249 -5.62837 -0.370537 3.97008 -38.1227 9.09919 -1.82177 -25.9623 -79.5559 -47.7563 94.4003 -39.2885 -3.49757 16.6426 -6.54751 -8.4301 -50.5119 27.3157 4.1086 11.3447 26.5555 34.6759 23.9162 -7.08216 25.4087 0.35524 
107.096 85.2032 -25.8646 79.5988 -80.8023 82.5462 -176.985 31.7899 106.637 -25.5666 -78.5424 -22.8963 29.9432 23.5644 23.8989 28.7808 4.67993e-006 2.73086e-006 178.571 15.597 99.7155 -52.7494 13.4572 0.690387 84.0894 -4.62171 -1.99078 28.7808 1.70704e-005 2.18491e-005 2.24328 7.09536 -93.4753 12.4855 0.806208 -0.465062 0.814771 0.785617 -0.50069 -21.7223 0.904119 -0.197227 -1.70965 0.9041 -0.19726 96.9992 -22.7096 -94.0522 53.8826 -8.57817 -4.69292 -3.67829 -0.629301 -40.114 7.23724 -1.46242 -25.7594 -80.68 -47.5062 92.6381 -39.6431 -3.34433 13.1583 -5.19705 -8.138 -46.5724 28.2715 3.76679 9.68088 22.9666 33.7716 25.2148 -5.16042 24.8774 0.887099 
